<?xml version="1.0" encoding="utf-8" standalone="no"?>
<!DOCTYPE svg PUBLIC "-//W3C//DTD SVG 1.1//EN"
  "http://www.w3.org/Graphics/SVG/1.1/DTD/svg11.dtd">
<svg xmlns:xlink="http://www.w3.org/1999/xlink" width="460.8pt" height="345.6pt" viewBox="0 0 460.8 345.6" xmlns="http://www.w3.org/2000/svg" version="1.1">
 <metadata>
  <rdf:RDF xmlns:dc="http://purl.org/dc/elements/1.1/" xmlns:cc="http://creativecommons.org/ns#" xmlns:rdf="http://www.w3.org/1999/02/22-rdf-syntax-ns#">
   <cc:Work>
    <dc:type rdf:resource="http://purl.org/dc/dcmitype/StillImage"/>
    <dc:date>2022-12-07T21:21:37.180743</dc:date>
    <dc:format>image/svg+xml</dc:format>
    <dc:creator>
     <cc:Agent>
      <dc:title>Matplotlib v3.6.2, https://matplotlib.org/</dc:title>
     </cc:Agent>
    </dc:creator>
   </cc:Work>
  </rdf:RDF>
 </metadata>
 <defs>
  <style type="text/css">*{stroke-linejoin: round; stroke-linecap: butt}</style>
 </defs>
 <g id="figure_1">
  <g id="patch_1">
   <path d="M 0 345.6 
L 460.8 345.6 
L 460.8 0 
L 0 0 
z
" style="fill: #b0c4de"/>
  </g>
  <g id="axes_1">
   <g id="patch_2">
    <path d="M 57.6 307.584 
L 414.72 307.584 
L 414.72 41.472 
L 57.6 41.472 
z
" style="fill: #ffffff"/>
   </g>
   <g id="matplotlib.axis_1">
    <g id="xtick_1">
     <g id="line2d_1">
      <path d="M 79.034213 307.584 
L 79.034213 41.472 
" clip-path="url(#p10c05da1fc)" style="fill: none; stroke-dasharray: 1,1.65; stroke-dashoffset: 0; stroke: #ff0000"/>
     </g>
     <g id="line2d_2">
      <defs>
       <path id="m63fb309f0b" d="M 0 0 
L 0 3.5 
" style="stroke: #000000; stroke-width: 0.8"/>
      </defs>
      <g>
       <use xlink:href="#m63fb309f0b" x="79.034213" y="307.584" style="stroke: #000000; stroke-width: 0.8"/>
      </g>
     </g>
     <g id="text_1">
      <!-- 2022-12-03 -->
      <g transform="translate(49.976401 322.182437) scale(0.1 -0.1)">
       <defs>
        <path id="DejaVuSans-32" d="M 1228 531 
L 3431 531 
L 3431 0 
L 469 0 
L 469 531 
Q 828 903 1448 1529 
Q 2069 2156 2228 2338 
Q 2531 2678 2651 2914 
Q 2772 3150 2772 3378 
Q 2772 3750 2511 3984 
Q 2250 4219 1831 4219 
Q 1534 4219 1204 4116 
Q 875 4013 500 3803 
L 500 4441 
Q 881 4594 1212 4672 
Q 1544 4750 1819 4750 
Q 2544 4750 2975 4387 
Q 3406 4025 3406 3419 
Q 3406 3131 3298 2873 
Q 3191 2616 2906 2266 
Q 2828 2175 2409 1742 
Q 1991 1309 1228 531 
z
" transform="scale(0.015625)"/>
        <path id="DejaVuSans-30" d="M 2034 4250 
Q 1547 4250 1301 3770 
Q 1056 3291 1056 2328 
Q 1056 1369 1301 889 
Q 1547 409 2034 409 
Q 2525 409 2770 889 
Q 3016 1369 3016 2328 
Q 3016 3291 2770 3770 
Q 2525 4250 2034 4250 
z
M 2034 4750 
Q 2819 4750 3233 4129 
Q 3647 3509 3647 2328 
Q 3647 1150 3233 529 
Q 2819 -91 2034 -91 
Q 1250 -91 836 529 
Q 422 1150 422 2328 
Q 422 3509 836 4129 
Q 1250 4750 2034 4750 
z
" transform="scale(0.015625)"/>
        <path id="DejaVuSans-2d" d="M 313 2009 
L 1997 2009 
L 1997 1497 
L 313 1497 
L 313 2009 
z
" transform="scale(0.015625)"/>
        <path id="DejaVuSans-31" d="M 794 531 
L 1825 531 
L 1825 4091 
L 703 3866 
L 703 4441 
L 1819 4666 
L 2450 4666 
L 2450 531 
L 3481 531 
L 3481 0 
L 794 0 
L 794 531 
z
" transform="scale(0.015625)"/>
        <path id="DejaVuSans-33" d="M 2597 2516 
Q 3050 2419 3304 2112 
Q 3559 1806 3559 1356 
Q 3559 666 3084 287 
Q 2609 -91 1734 -91 
Q 1441 -91 1130 -33 
Q 819 25 488 141 
L 488 750 
Q 750 597 1062 519 
Q 1375 441 1716 441 
Q 2309 441 2620 675 
Q 2931 909 2931 1356 
Q 2931 1769 2642 2001 
Q 2353 2234 1838 2234 
L 1294 2234 
L 1294 2753 
L 1863 2753 
Q 2328 2753 2575 2939 
Q 2822 3125 2822 3475 
Q 2822 3834 2567 4026 
Q 2313 4219 1838 4219 
Q 1578 4219 1281 4162 
Q 984 4106 628 3988 
L 628 4550 
Q 988 4650 1302 4700 
Q 1616 4750 1894 4750 
Q 2613 4750 3031 4423 
Q 3450 4097 3450 3541 
Q 3450 3153 3228 2886 
Q 3006 2619 2597 2516 
z
" transform="scale(0.015625)"/>
       </defs>
       <use xlink:href="#DejaVuSans-32"/>
       <use xlink:href="#DejaVuSans-30" x="63.623047"/>
       <use xlink:href="#DejaVuSans-32" x="127.246094"/>
       <use xlink:href="#DejaVuSans-32" x="190.869141"/>
       <use xlink:href="#DejaVuSans-2d" x="254.492188"/>
       <use xlink:href="#DejaVuSans-31" x="290.576172"/>
       <use xlink:href="#DejaVuSans-32" x="354.199219"/>
       <use xlink:href="#DejaVuSans-2d" x="417.822266"/>
       <use xlink:href="#DejaVuSans-30" x="453.90625"/>
       <use xlink:href="#DejaVuSans-33" x="517.529297"/>
      </g>
     </g>
    </g>
    <g id="xtick_2">
     <g id="line2d_3">
      <path d="M 147.421714 307.584 
L 147.421714 41.472 
" clip-path="url(#p10c05da1fc)" style="fill: none; stroke-dasharray: 1,1.65; stroke-dashoffset: 0; stroke: #ff0000"/>
     </g>
     <g id="line2d_4">
      <g>
       <use xlink:href="#m63fb309f0b" x="147.421714" y="307.584" style="stroke: #000000; stroke-width: 0.8"/>
      </g>
     </g>
     <g id="text_2">
      <!-- 2022-12-04 -->
      <g transform="translate(118.363902 322.182437) scale(0.1 -0.1)">
       <defs>
        <path id="DejaVuSans-34" d="M 2419 4116 
L 825 1625 
L 2419 1625 
L 2419 4116 
z
M 2253 4666 
L 3047 4666 
L 3047 1625 
L 3713 1625 
L 3713 1100 
L 3047 1100 
L 3047 0 
L 2419 0 
L 2419 1100 
L 313 1100 
L 313 1709 
L 2253 4666 
z
" transform="scale(0.015625)"/>
       </defs>
       <use xlink:href="#DejaVuSans-32"/>
       <use xlink:href="#DejaVuSans-30" x="63.623047"/>
       <use xlink:href="#DejaVuSans-32" x="127.246094"/>
       <use xlink:href="#DejaVuSans-32" x="190.869141"/>
       <use xlink:href="#DejaVuSans-2d" x="254.492188"/>
       <use xlink:href="#DejaVuSans-31" x="290.576172"/>
       <use xlink:href="#DejaVuSans-32" x="354.199219"/>
       <use xlink:href="#DejaVuSans-2d" x="417.822266"/>
       <use xlink:href="#DejaVuSans-30" x="453.90625"/>
       <use xlink:href="#DejaVuSans-34" x="517.529297"/>
      </g>
     </g>
    </g>
    <g id="xtick_3">
     <g id="line2d_5">
      <path d="M 215.809215 307.584 
L 215.809215 41.472 
" clip-path="url(#p10c05da1fc)" style="fill: none; stroke-dasharray: 1,1.65; stroke-dashoffset: 0; stroke: #ff0000"/>
     </g>
     <g id="line2d_6">
      <g>
       <use xlink:href="#m63fb309f0b" x="215.809215" y="307.584" style="stroke: #000000; stroke-width: 0.8"/>
      </g>
     </g>
     <g id="text_3">
      <!-- 2022-12-05 -->
      <g transform="translate(186.751402 322.182437) scale(0.1 -0.1)">
       <defs>
        <path id="DejaVuSans-35" d="M 691 4666 
L 3169 4666 
L 3169 4134 
L 1269 4134 
L 1269 2991 
Q 1406 3038 1543 3061 
Q 1681 3084 1819 3084 
Q 2600 3084 3056 2656 
Q 3513 2228 3513 1497 
Q 3513 744 3044 326 
Q 2575 -91 1722 -91 
Q 1428 -91 1123 -41 
Q 819 9 494 109 
L 494 744 
Q 775 591 1075 516 
Q 1375 441 1709 441 
Q 2250 441 2565 725 
Q 2881 1009 2881 1497 
Q 2881 1984 2565 2268 
Q 2250 2553 1709 2553 
Q 1456 2553 1204 2497 
Q 953 2441 691 2322 
L 691 4666 
z
" transform="scale(0.015625)"/>
       </defs>
       <use xlink:href="#DejaVuSans-32"/>
       <use xlink:href="#DejaVuSans-30" x="63.623047"/>
       <use xlink:href="#DejaVuSans-32" x="127.246094"/>
       <use xlink:href="#DejaVuSans-32" x="190.869141"/>
       <use xlink:href="#DejaVuSans-2d" x="254.492188"/>
       <use xlink:href="#DejaVuSans-31" x="290.576172"/>
       <use xlink:href="#DejaVuSans-32" x="354.199219"/>
       <use xlink:href="#DejaVuSans-2d" x="417.822266"/>
       <use xlink:href="#DejaVuSans-30" x="453.90625"/>
       <use xlink:href="#DejaVuSans-35" x="517.529297"/>
      </g>
     </g>
    </g>
    <g id="xtick_4">
     <g id="line2d_7">
      <path d="M 284.196715 307.584 
L 284.196715 41.472 
" clip-path="url(#p10c05da1fc)" style="fill: none; stroke-dasharray: 1,1.65; stroke-dashoffset: 0; stroke: #ff0000"/>
     </g>
     <g id="line2d_8">
      <g>
       <use xlink:href="#m63fb309f0b" x="284.196715" y="307.584" style="stroke: #000000; stroke-width: 0.8"/>
      </g>
     </g>
     <g id="text_4">
      <!-- 2022-12-06 -->
      <g transform="translate(255.138903 322.182437) scale(0.1 -0.1)">
       <defs>
        <path id="DejaVuSans-36" d="M 2113 2584 
Q 1688 2584 1439 2293 
Q 1191 2003 1191 1497 
Q 1191 994 1439 701 
Q 1688 409 2113 409 
Q 2538 409 2786 701 
Q 3034 994 3034 1497 
Q 3034 2003 2786 2293 
Q 2538 2584 2113 2584 
z
M 3366 4563 
L 3366 3988 
Q 3128 4100 2886 4159 
Q 2644 4219 2406 4219 
Q 1781 4219 1451 3797 
Q 1122 3375 1075 2522 
Q 1259 2794 1537 2939 
Q 1816 3084 2150 3084 
Q 2853 3084 3261 2657 
Q 3669 2231 3669 1497 
Q 3669 778 3244 343 
Q 2819 -91 2113 -91 
Q 1303 -91 875 529 
Q 447 1150 447 2328 
Q 447 3434 972 4092 
Q 1497 4750 2381 4750 
Q 2619 4750 2861 4703 
Q 3103 4656 3366 4563 
z
" transform="scale(0.015625)"/>
       </defs>
       <use xlink:href="#DejaVuSans-32"/>
       <use xlink:href="#DejaVuSans-30" x="63.623047"/>
       <use xlink:href="#DejaVuSans-32" x="127.246094"/>
       <use xlink:href="#DejaVuSans-32" x="190.869141"/>
       <use xlink:href="#DejaVuSans-2d" x="254.492188"/>
       <use xlink:href="#DejaVuSans-31" x="290.576172"/>
       <use xlink:href="#DejaVuSans-32" x="354.199219"/>
       <use xlink:href="#DejaVuSans-2d" x="417.822266"/>
       <use xlink:href="#DejaVuSans-30" x="453.90625"/>
       <use xlink:href="#DejaVuSans-36" x="517.529297"/>
      </g>
     </g>
    </g>
    <g id="xtick_5">
     <g id="line2d_9">
      <path d="M 352.584216 307.584 
L 352.584216 41.472 
" clip-path="url(#p10c05da1fc)" style="fill: none; stroke-dasharray: 1,1.65; stroke-dashoffset: 0; stroke: #ff0000"/>
     </g>
     <g id="line2d_10">
      <g>
       <use xlink:href="#m63fb309f0b" x="352.584216" y="307.584" style="stroke: #000000; stroke-width: 0.8"/>
      </g>
     </g>
     <g id="text_5">
      <!-- 2022-12-07 -->
      <g transform="translate(323.526404 322.182437) scale(0.1 -0.1)">
       <defs>
        <path id="DejaVuSans-37" d="M 525 4666 
L 3525 4666 
L 3525 4397 
L 1831 0 
L 1172 0 
L 2766 4134 
L 525 4134 
L 525 4666 
z
" transform="scale(0.015625)"/>
       </defs>
       <use xlink:href="#DejaVuSans-32"/>
       <use xlink:href="#DejaVuSans-30" x="63.623047"/>
       <use xlink:href="#DejaVuSans-32" x="127.246094"/>
       <use xlink:href="#DejaVuSans-32" x="190.869141"/>
       <use xlink:href="#DejaVuSans-2d" x="254.492188"/>
       <use xlink:href="#DejaVuSans-31" x="290.576172"/>
       <use xlink:href="#DejaVuSans-32" x="354.199219"/>
       <use xlink:href="#DejaVuSans-2d" x="417.822266"/>
       <use xlink:href="#DejaVuSans-30" x="453.90625"/>
       <use xlink:href="#DejaVuSans-37" x="517.529297"/>
      </g>
     </g>
    </g>
    <g id="text_6">
     <!-- Date and Time -->
     <g transform="translate(199.390469 335.860562) scale(0.1 -0.1)">
      <defs>
       <path id="DejaVuSans-44" d="M 1259 4147 
L 1259 519 
L 2022 519 
Q 2988 519 3436 956 
Q 3884 1394 3884 2338 
Q 3884 3275 3436 3711 
Q 2988 4147 2022 4147 
L 1259 4147 
z
M 628 4666 
L 1925 4666 
Q 3281 4666 3915 4102 
Q 4550 3538 4550 2338 
Q 4550 1131 3912 565 
Q 3275 0 1925 0 
L 628 0 
L 628 4666 
z
" transform="scale(0.015625)"/>
       <path id="DejaVuSans-61" d="M 2194 1759 
Q 1497 1759 1228 1600 
Q 959 1441 959 1056 
Q 959 750 1161 570 
Q 1363 391 1709 391 
Q 2188 391 2477 730 
Q 2766 1069 2766 1631 
L 2766 1759 
L 2194 1759 
z
M 3341 1997 
L 3341 0 
L 2766 0 
L 2766 531 
Q 2569 213 2275 61 
Q 1981 -91 1556 -91 
Q 1019 -91 701 211 
Q 384 513 384 1019 
Q 384 1609 779 1909 
Q 1175 2209 1959 2209 
L 2766 2209 
L 2766 2266 
Q 2766 2663 2505 2880 
Q 2244 3097 1772 3097 
Q 1472 3097 1187 3025 
Q 903 2953 641 2809 
L 641 3341 
Q 956 3463 1253 3523 
Q 1550 3584 1831 3584 
Q 2591 3584 2966 3190 
Q 3341 2797 3341 1997 
z
" transform="scale(0.015625)"/>
       <path id="DejaVuSans-74" d="M 1172 4494 
L 1172 3500 
L 2356 3500 
L 2356 3053 
L 1172 3053 
L 1172 1153 
Q 1172 725 1289 603 
Q 1406 481 1766 481 
L 2356 481 
L 2356 0 
L 1766 0 
Q 1100 0 847 248 
Q 594 497 594 1153 
L 594 3053 
L 172 3053 
L 172 3500 
L 594 3500 
L 594 4494 
L 1172 4494 
z
" transform="scale(0.015625)"/>
       <path id="DejaVuSans-65" d="M 3597 1894 
L 3597 1613 
L 953 1613 
Q 991 1019 1311 708 
Q 1631 397 2203 397 
Q 2534 397 2845 478 
Q 3156 559 3463 722 
L 3463 178 
Q 3153 47 2828 -22 
Q 2503 -91 2169 -91 
Q 1331 -91 842 396 
Q 353 884 353 1716 
Q 353 2575 817 3079 
Q 1281 3584 2069 3584 
Q 2775 3584 3186 3129 
Q 3597 2675 3597 1894 
z
M 3022 2063 
Q 3016 2534 2758 2815 
Q 2500 3097 2075 3097 
Q 1594 3097 1305 2825 
Q 1016 2553 972 2059 
L 3022 2063 
z
" transform="scale(0.015625)"/>
       <path id="DejaVuSans-20" transform="scale(0.015625)"/>
       <path id="DejaVuSans-6e" d="M 3513 2113 
L 3513 0 
L 2938 0 
L 2938 2094 
Q 2938 2591 2744 2837 
Q 2550 3084 2163 3084 
Q 1697 3084 1428 2787 
Q 1159 2491 1159 1978 
L 1159 0 
L 581 0 
L 581 3500 
L 1159 3500 
L 1159 2956 
Q 1366 3272 1645 3428 
Q 1925 3584 2291 3584 
Q 2894 3584 3203 3211 
Q 3513 2838 3513 2113 
z
" transform="scale(0.015625)"/>
       <path id="DejaVuSans-64" d="M 2906 2969 
L 2906 4863 
L 3481 4863 
L 3481 0 
L 2906 0 
L 2906 525 
Q 2725 213 2448 61 
Q 2172 -91 1784 -91 
Q 1150 -91 751 415 
Q 353 922 353 1747 
Q 353 2572 751 3078 
Q 1150 3584 1784 3584 
Q 2172 3584 2448 3432 
Q 2725 3281 2906 2969 
z
M 947 1747 
Q 947 1113 1208 752 
Q 1469 391 1925 391 
Q 2381 391 2643 752 
Q 2906 1113 2906 1747 
Q 2906 2381 2643 2742 
Q 2381 3103 1925 3103 
Q 1469 3103 1208 2742 
Q 947 2381 947 1747 
z
" transform="scale(0.015625)"/>
       <path id="DejaVuSans-54" d="M -19 4666 
L 3928 4666 
L 3928 4134 
L 2272 4134 
L 2272 0 
L 1638 0 
L 1638 4134 
L -19 4134 
L -19 4666 
z
" transform="scale(0.015625)"/>
       <path id="DejaVuSans-69" d="M 603 3500 
L 1178 3500 
L 1178 0 
L 603 0 
L 603 3500 
z
M 603 4863 
L 1178 4863 
L 1178 4134 
L 603 4134 
L 603 4863 
z
" transform="scale(0.015625)"/>
       <path id="DejaVuSans-6d" d="M 3328 2828 
Q 3544 3216 3844 3400 
Q 4144 3584 4550 3584 
Q 5097 3584 5394 3201 
Q 5691 2819 5691 2113 
L 5691 0 
L 5113 0 
L 5113 2094 
Q 5113 2597 4934 2840 
Q 4756 3084 4391 3084 
Q 3944 3084 3684 2787 
Q 3425 2491 3425 1978 
L 3425 0 
L 2847 0 
L 2847 2094 
Q 2847 2600 2669 2842 
Q 2491 3084 2119 3084 
Q 1678 3084 1418 2786 
Q 1159 2488 1159 1978 
L 1159 0 
L 581 0 
L 581 3500 
L 1159 3500 
L 1159 2956 
Q 1356 3278 1631 3431 
Q 1906 3584 2284 3584 
Q 2666 3584 2933 3390 
Q 3200 3197 3328 2828 
z
" transform="scale(0.015625)"/>
      </defs>
      <use xlink:href="#DejaVuSans-44"/>
      <use xlink:href="#DejaVuSans-61" x="77.001953"/>
      <use xlink:href="#DejaVuSans-74" x="138.28125"/>
      <use xlink:href="#DejaVuSans-65" x="177.490234"/>
      <use xlink:href="#DejaVuSans-20" x="239.013672"/>
      <use xlink:href="#DejaVuSans-61" x="270.800781"/>
      <use xlink:href="#DejaVuSans-6e" x="332.080078"/>
      <use xlink:href="#DejaVuSans-64" x="395.458984"/>
      <use xlink:href="#DejaVuSans-20" x="458.935547"/>
      <use xlink:href="#DejaVuSans-54" x="490.722656"/>
      <use xlink:href="#DejaVuSans-69" x="548.681641"/>
      <use xlink:href="#DejaVuSans-6d" x="576.464844"/>
      <use xlink:href="#DejaVuSans-65" x="673.876953"/>
     </g>
    </g>
   </g>
   <g id="matplotlib.axis_2">
    <g id="ytick_1">
     <g id="line2d_11">
      <path d="M 57.6 295.488 
L 414.72 295.488 
" clip-path="url(#p10c05da1fc)" style="fill: none; stroke-dasharray: 1,1.65; stroke-dashoffset: 0; stroke: #ff0000"/>
     </g>
     <g id="line2d_12">
      <defs>
       <path id="m4d0b68d9c8" d="M 0 0 
L -3.5 0 
" style="stroke: #000000; stroke-width: 0.8"/>
      </defs>
      <g>
       <use xlink:href="#m4d0b68d9c8" x="57.6" y="295.488" style="stroke: #000000; stroke-width: 0.8"/>
      </g>
     </g>
     <g id="text_7">
      <!-- 0 -->
      <g transform="translate(44.2375 299.287219) scale(0.1 -0.1)">
       <use xlink:href="#DejaVuSans-30"/>
      </g>
     </g>
    </g>
    <g id="ytick_2">
     <g id="line2d_13">
      <path d="M 57.6 241.076024 
L 414.72 241.076024 
" clip-path="url(#p10c05da1fc)" style="fill: none; stroke-dasharray: 1,1.65; stroke-dashoffset: 0; stroke: #ff0000"/>
     </g>
     <g id="line2d_14">
      <g>
       <use xlink:href="#m4d0b68d9c8" x="57.6" y="241.076024" style="stroke: #000000; stroke-width: 0.8"/>
      </g>
     </g>
     <g id="text_8">
      <!-- 50000 -->
      <g transform="translate(18.7875 244.875242) scale(0.1 -0.1)">
       <use xlink:href="#DejaVuSans-35"/>
       <use xlink:href="#DejaVuSans-30" x="63.623047"/>
       <use xlink:href="#DejaVuSans-30" x="127.246094"/>
       <use xlink:href="#DejaVuSans-30" x="190.869141"/>
       <use xlink:href="#DejaVuSans-30" x="254.492188"/>
      </g>
     </g>
    </g>
    <g id="ytick_3">
     <g id="line2d_15">
      <path d="M 57.6 186.664047 
L 414.72 186.664047 
" clip-path="url(#p10c05da1fc)" style="fill: none; stroke-dasharray: 1,1.65; stroke-dashoffset: 0; stroke: #ff0000"/>
     </g>
     <g id="line2d_16">
      <g>
       <use xlink:href="#m4d0b68d9c8" x="57.6" y="186.664047" style="stroke: #000000; stroke-width: 0.8"/>
      </g>
     </g>
     <g id="text_9">
      <!-- 100000 -->
      <g transform="translate(12.425 190.463266) scale(0.1 -0.1)">
       <use xlink:href="#DejaVuSans-31"/>
       <use xlink:href="#DejaVuSans-30" x="63.623047"/>
       <use xlink:href="#DejaVuSans-30" x="127.246094"/>
       <use xlink:href="#DejaVuSans-30" x="190.869141"/>
       <use xlink:href="#DejaVuSans-30" x="254.492188"/>
       <use xlink:href="#DejaVuSans-30" x="318.115234"/>
      </g>
     </g>
    </g>
    <g id="ytick_4">
     <g id="line2d_17">
      <path d="M 57.6 132.252071 
L 414.72 132.252071 
" clip-path="url(#p10c05da1fc)" style="fill: none; stroke-dasharray: 1,1.65; stroke-dashoffset: 0; stroke: #ff0000"/>
     </g>
     <g id="line2d_18">
      <g>
       <use xlink:href="#m4d0b68d9c8" x="57.6" y="132.252071" style="stroke: #000000; stroke-width: 0.8"/>
      </g>
     </g>
     <g id="text_10">
      <!-- 150000 -->
      <g transform="translate(12.425 136.05129) scale(0.1 -0.1)">
       <use xlink:href="#DejaVuSans-31"/>
       <use xlink:href="#DejaVuSans-35" x="63.623047"/>
       <use xlink:href="#DejaVuSans-30" x="127.246094"/>
       <use xlink:href="#DejaVuSans-30" x="190.869141"/>
       <use xlink:href="#DejaVuSans-30" x="254.492188"/>
       <use xlink:href="#DejaVuSans-30" x="318.115234"/>
      </g>
     </g>
    </g>
    <g id="ytick_5">
     <g id="line2d_19">
      <path d="M 57.6 77.840094 
L 414.72 77.840094 
" clip-path="url(#p10c05da1fc)" style="fill: none; stroke-dasharray: 1,1.65; stroke-dashoffset: 0; stroke: #ff0000"/>
     </g>
     <g id="line2d_20">
      <g>
       <use xlink:href="#m4d0b68d9c8" x="57.6" y="77.840094" style="stroke: #000000; stroke-width: 0.8"/>
      </g>
     </g>
     <g id="text_11">
      <!-- 200000 -->
      <g transform="translate(12.425 81.639313) scale(0.1 -0.1)">
       <use xlink:href="#DejaVuSans-32"/>
       <use xlink:href="#DejaVuSans-30" x="63.623047"/>
       <use xlink:href="#DejaVuSans-30" x="127.246094"/>
       <use xlink:href="#DejaVuSans-30" x="190.869141"/>
       <use xlink:href="#DejaVuSans-30" x="254.492188"/>
       <use xlink:href="#DejaVuSans-30" x="318.115234"/>
      </g>
     </g>
    </g>
    <g id="text_12">
     <!-- Number of pages -->
     <g transform="translate(6.345312 217.705344) rotate(-90) scale(0.1 -0.1)">
      <defs>
       <path id="DejaVuSans-4e" d="M 628 4666 
L 1478 4666 
L 3547 763 
L 3547 4666 
L 4159 4666 
L 4159 0 
L 3309 0 
L 1241 3903 
L 1241 0 
L 628 0 
L 628 4666 
z
" transform="scale(0.015625)"/>
       <path id="DejaVuSans-75" d="M 544 1381 
L 544 3500 
L 1119 3500 
L 1119 1403 
Q 1119 906 1312 657 
Q 1506 409 1894 409 
Q 2359 409 2629 706 
Q 2900 1003 2900 1516 
L 2900 3500 
L 3475 3500 
L 3475 0 
L 2900 0 
L 2900 538 
Q 2691 219 2414 64 
Q 2138 -91 1772 -91 
Q 1169 -91 856 284 
Q 544 659 544 1381 
z
M 1991 3584 
L 1991 3584 
z
" transform="scale(0.015625)"/>
       <path id="DejaVuSans-62" d="M 3116 1747 
Q 3116 2381 2855 2742 
Q 2594 3103 2138 3103 
Q 1681 3103 1420 2742 
Q 1159 2381 1159 1747 
Q 1159 1113 1420 752 
Q 1681 391 2138 391 
Q 2594 391 2855 752 
Q 3116 1113 3116 1747 
z
M 1159 2969 
Q 1341 3281 1617 3432 
Q 1894 3584 2278 3584 
Q 2916 3584 3314 3078 
Q 3713 2572 3713 1747 
Q 3713 922 3314 415 
Q 2916 -91 2278 -91 
Q 1894 -91 1617 61 
Q 1341 213 1159 525 
L 1159 0 
L 581 0 
L 581 4863 
L 1159 4863 
L 1159 2969 
z
" transform="scale(0.015625)"/>
       <path id="DejaVuSans-72" d="M 2631 2963 
Q 2534 3019 2420 3045 
Q 2306 3072 2169 3072 
Q 1681 3072 1420 2755 
Q 1159 2438 1159 1844 
L 1159 0 
L 581 0 
L 581 3500 
L 1159 3500 
L 1159 2956 
Q 1341 3275 1631 3429 
Q 1922 3584 2338 3584 
Q 2397 3584 2469 3576 
Q 2541 3569 2628 3553 
L 2631 2963 
z
" transform="scale(0.015625)"/>
       <path id="DejaVuSans-6f" d="M 1959 3097 
Q 1497 3097 1228 2736 
Q 959 2375 959 1747 
Q 959 1119 1226 758 
Q 1494 397 1959 397 
Q 2419 397 2687 759 
Q 2956 1122 2956 1747 
Q 2956 2369 2687 2733 
Q 2419 3097 1959 3097 
z
M 1959 3584 
Q 2709 3584 3137 3096 
Q 3566 2609 3566 1747 
Q 3566 888 3137 398 
Q 2709 -91 1959 -91 
Q 1206 -91 779 398 
Q 353 888 353 1747 
Q 353 2609 779 3096 
Q 1206 3584 1959 3584 
z
" transform="scale(0.015625)"/>
       <path id="DejaVuSans-66" d="M 2375 4863 
L 2375 4384 
L 1825 4384 
Q 1516 4384 1395 4259 
Q 1275 4134 1275 3809 
L 1275 3500 
L 2222 3500 
L 2222 3053 
L 1275 3053 
L 1275 0 
L 697 0 
L 697 3053 
L 147 3053 
L 147 3500 
L 697 3500 
L 697 3744 
Q 697 4328 969 4595 
Q 1241 4863 1831 4863 
L 2375 4863 
z
" transform="scale(0.015625)"/>
       <path id="DejaVuSans-70" d="M 1159 525 
L 1159 -1331 
L 581 -1331 
L 581 3500 
L 1159 3500 
L 1159 2969 
Q 1341 3281 1617 3432 
Q 1894 3584 2278 3584 
Q 2916 3584 3314 3078 
Q 3713 2572 3713 1747 
Q 3713 922 3314 415 
Q 2916 -91 2278 -91 
Q 1894 -91 1617 61 
Q 1341 213 1159 525 
z
M 3116 1747 
Q 3116 2381 2855 2742 
Q 2594 3103 2138 3103 
Q 1681 3103 1420 2742 
Q 1159 2381 1159 1747 
Q 1159 1113 1420 752 
Q 1681 391 2138 391 
Q 2594 391 2855 752 
Q 3116 1113 3116 1747 
z
" transform="scale(0.015625)"/>
       <path id="DejaVuSans-67" d="M 2906 1791 
Q 2906 2416 2648 2759 
Q 2391 3103 1925 3103 
Q 1463 3103 1205 2759 
Q 947 2416 947 1791 
Q 947 1169 1205 825 
Q 1463 481 1925 481 
Q 2391 481 2648 825 
Q 2906 1169 2906 1791 
z
M 3481 434 
Q 3481 -459 3084 -895 
Q 2688 -1331 1869 -1331 
Q 1566 -1331 1297 -1286 
Q 1028 -1241 775 -1147 
L 775 -588 
Q 1028 -725 1275 -790 
Q 1522 -856 1778 -856 
Q 2344 -856 2625 -561 
Q 2906 -266 2906 331 
L 2906 616 
Q 2728 306 2450 153 
Q 2172 0 1784 0 
Q 1141 0 747 490 
Q 353 981 353 1791 
Q 353 2603 747 3093 
Q 1141 3584 1784 3584 
Q 2172 3584 2450 3431 
Q 2728 3278 2906 2969 
L 2906 3500 
L 3481 3500 
L 3481 434 
z
" transform="scale(0.015625)"/>
       <path id="DejaVuSans-73" d="M 2834 3397 
L 2834 2853 
Q 2591 2978 2328 3040 
Q 2066 3103 1784 3103 
Q 1356 3103 1142 2972 
Q 928 2841 928 2578 
Q 928 2378 1081 2264 
Q 1234 2150 1697 2047 
L 1894 2003 
Q 2506 1872 2764 1633 
Q 3022 1394 3022 966 
Q 3022 478 2636 193 
Q 2250 -91 1575 -91 
Q 1294 -91 989 -36 
Q 684 19 347 128 
L 347 722 
Q 666 556 975 473 
Q 1284 391 1588 391 
Q 1994 391 2212 530 
Q 2431 669 2431 922 
Q 2431 1156 2273 1281 
Q 2116 1406 1581 1522 
L 1381 1569 
Q 847 1681 609 1914 
Q 372 2147 372 2553 
Q 372 3047 722 3315 
Q 1072 3584 1716 3584 
Q 2034 3584 2315 3537 
Q 2597 3491 2834 3397 
z
" transform="scale(0.015625)"/>
      </defs>
      <use xlink:href="#DejaVuSans-4e"/>
      <use xlink:href="#DejaVuSans-75" x="74.804688"/>
      <use xlink:href="#DejaVuSans-6d" x="138.183594"/>
      <use xlink:href="#DejaVuSans-62" x="235.595703"/>
      <use xlink:href="#DejaVuSans-65" x="299.072266"/>
      <use xlink:href="#DejaVuSans-72" x="360.595703"/>
      <use xlink:href="#DejaVuSans-20" x="401.708984"/>
      <use xlink:href="#DejaVuSans-6f" x="433.496094"/>
      <use xlink:href="#DejaVuSans-66" x="494.677734"/>
      <use xlink:href="#DejaVuSans-20" x="529.882812"/>
      <use xlink:href="#DejaVuSans-70" x="561.669922"/>
      <use xlink:href="#DejaVuSans-61" x="625.146484"/>
      <use xlink:href="#DejaVuSans-67" x="686.425781"/>
      <use xlink:href="#DejaVuSans-65" x="749.902344"/>
      <use xlink:href="#DejaVuSans-73" x="811.425781"/>
     </g>
    </g>
   </g>
   <g id="line2d_21">
    <path d="M 73.832727 295.488 
L 74.095469 295.304088 
L 74.315702 295.058145 
L 74.612771 294.727321 
L 75.024855 294.246319 
L 75.151927 294.105936 
L 75.444731 293.731581 
L 75.629674 293.519375 
L 76.514598 292.521459 
L 76.809648 292.164516 
L 76.955783 291.980604 
L 78.233472 290.479922 
L 78.375165 290.315598 
L 78.488901 290.188273 
L 78.742014 289.903155 
L 78.881323 289.739919 
L 79.754514 288.747444 
L 79.919994 288.563532 
L 80.793568 287.552557 
L 80.923036 287.394763 
L 84.829518 282.775186 
L 85.530136 281.95683 
L 85.691238 281.766388 
L 86.054731 281.328916 
L 86.347184 280.997002 
L 86.542319 280.771737 
L 86.656393 280.637883 
L 86.856704 280.413706 
L 87.398269 279.780351 
L 87.623793 279.525703 
L 87.861377 279.280849 
L 90.742044 275.910571 
L 90.892453 275.748423 
L 91.317281 275.230421 
L 91.436212 275.084597 
L 91.547016 274.939861 
L 91.731518 274.713507 
L 91.913548 274.496948 
L 92.60752 273.726474 
L 100.829096 273.516444 
L 100.941273 273.404355 
L 101.333635 273.003883 
L 101.639719 272.768823 
L 101.923588 272.603411 
L 102.139363 272.434734 
L 102.42824 272.209468 
L 104.221566 270.751227 
L 104.396669 270.587991 
L 104.793695 270.253902 
L 105.047524 270.054754 
L 105.452633 269.713047 
L 105.642373 269.551987 
L 105.77476 269.425752 
L 107.861484 267.746598 
L 108.108873 267.559421 
L 108.508483 267.254714 
L 108.716127 267.106713 
L 108.845323 267.017477 
L 109.429638 266.563682 
L 110.521839 265.42103 
L 110.661908 265.236029 
L 111.390521 264.463379 
L 112.197342 263.686376 
L 112.327022 263.516611 
L 113.400483 262.456666 
L 113.605465 262.2869 
L 113.758787 262.153047 
L 117.963829 259.768714 
L 118.791174 259.376948 
L 119.035603 259.262683 
L 119.319853 259.075505 
L 119.507195 258.96777 
L 121.010706 258.173355 
L 121.705143 257.766353 
L 122.215582 257.545441 
L 122.562687 257.376763 
L 122.809699 257.245087 
L 123.191619 257.043762 
L 123.526962 256.894673 
L 124.174936 256.608466 
L 124.318101 256.527937 
L 124.710897 256.363612 
L 124.931481 256.250436 
L 125.173479 256.123112 
L 125.57273 255.881522 
L 125.8402 255.744404 
L 126.088472 255.596404 
L 126.298178 255.493021 
L 126.569639 255.338491 
L 127.469768 254.846607 
L 127.587489 254.804165 
L 128.983592 254.013015 
L 130.280356 253.208806 
L 130.515695 253.056453 
L 130.633309 252.99007 
L 131.409051 252.595039 
L 131.567182 252.498186 
L 134.180737 250.969209 
L 134.383559 250.800532 
L 134.726763 250.601384 
L 134.837323 250.545884 
L 136.217447 249.673116 
L 136.341555 249.575174 
L 136.566357 249.422821 
L 136.980594 249.127908 
L 137.188254 248.96576 
L 137.598911 248.692612 
L 137.735785 248.583788 
L 138.290091 248.259493 
L 138.61256 248.060345 
L 139.155648 247.758903 
L 139.393231 247.589137 
L 139.523279 247.506431 
L 139.782722 247.342107 
L 141.221136 246.333309 
L 141.489795 246.158102 
L 141.59994 246.084102 
L 141.753076 245.95569 
L 141.866077 245.871895 
L 142.485879 245.413746 
L 142.609284 245.33757 
L 142.913724 245.130804 
L 143.111379 244.94145 
L 143.305824 244.807597 
L 143.880273 244.483302 
L 143.994749 244.421272 
L 145.303467 243.66821 
L 145.648346 243.409209 
L 145.915999 243.252503 
L 148.49353 241.612526 
L 148.78781 241.468878 
L 148.919229 241.390525 
L 149.253207 241.200083 
L 149.668147 241.080377 
L 171.907252 240.968288 
L 172.021041 240.895376 
L 172.292069 240.710375 
L 172.439891 240.601551 
L 172.669354 240.456815 
L 172.799632 240.363227 
L 173.263851 240.067226 
L 173.849375 239.728783 
L 174.423606 239.429517 
L 174.962977 239.144398 
L 175.222804 238.971368 
L 175.662842 238.66122 
L 175.891829 238.503425 
L 176.05649 238.37719 
L 176.232292 238.252042 
L 184.882432 232.311342 
L 185.010818 232.194901 
L 185.457898 231.885841 
L 185.699097 231.728046 
L 186.657636 231.11972 
L 186.846119 230.998926 
L 188.612593 229.805127 
L 188.866251 229.652773 
L 189.357477 229.316507 
L 189.483083 229.231625 
L 189.804852 229.004183 
L 191.115279 228.051973 
L 191.416787 227.832149 
L 191.566047 227.71353 
L 192.56306 227.020322 
L 192.80696 226.881027 
L 193.870761 226.084436 
L 194.052265 225.941876 
L 194.349404 225.71117 
L 194.524003 225.567522 
L 194.916853 225.292197 
L 195.963728 224.555459 
L 196.083045 224.470577 
L 196.274399 224.3389 
L 196.693968 224.035281 
L 196.888524 223.907957 
L 197.202824 223.696838 
L 197.758656 223.317043 
L 198.728282 222.665187 
L 198.961937 222.483451 
L 199.170278 222.33001 
L 199.385432 222.184185 
L 201.319687 220.77818 
L 201.472683 220.656297 
L 201.778729 220.422326 
L 201.907545 220.330913 
L 202.156689 220.058854 
L 202.321954 219.920647 
L 202.564775 219.743264 
L 203.367161 219.146909 
L 203.47881 219.066379 
L 203.754289 218.86832 
L 203.875307 218.78126 
L 204.071239 218.64523 
L 204.905695 218.018404 
L 205.073176 217.895433 
L 205.192589 217.800757 
L 205.426528 217.621197 
L 205.668361 217.429667 
L 206.113747 217.05096 
L 207.673653 215.819072 
L 207.92545 215.641689 
L 209.023645 214.884275 
L 209.198706 214.761304 
L 209.321522 214.686215 
L 209.577771 214.519714 
L 209.704924 214.432655 
L 209.992176 214.21936 
L 210.149266 214.08986 
L 210.55654 213.803653 
L 210.806855 213.614299 
L 210.934309 213.49024 
L 211.189918 213.241033 
L 216.491421 209.586725 
L 216.782498 209.418048 
L 216.91126 209.33643 
L 217.195731 209.169929 
L 217.534709 208.999075 
L 220.082206 207.546276 
L 220.928098 207.050038 
L 221.296426 206.812802 
L 221.577114 206.632154 
L 221.960472 206.3873 
L 222.248528 206.197947 
L 222.365243 206.113064 
L 222.559953 205.970505 
L 223.702415 205.167384 
L 223.837997 205.062913 
L 224.050445 204.901853 
L 224.188509 204.798471 
L 224.345273 204.674411 
L 224.589281 204.499205 
L 224.747561 204.394734 
L 225.095568 204.174909 
L 225.968784 203.652554 
L 226.214495 203.499113 
L 226.526835 203.299965 
L 227.414333 202.651374 
L 227.707113 202.434814 
L 227.9099 202.278108 
L 228.212118 202.075695 
L 228.707568 201.720929 
L 228.8893 201.574017 
L 229.279461 201.245369 
L 229.774262 200.877544 
L 229.958803 200.742602 
L 230.124163 200.610925 
L 230.758025 200.122305 
L 230.877333 200.034158 
L 231.341353 199.708774 
L 235.198587 196.569203 
L 235.331548 196.459291 
L 235.550745 196.282996 
L 235.714757 196.138261 
L 236.014628 195.89123 
L 236.193609 195.758465 
L 236.450404 195.558229 
L 236.616781 195.422199 
L 236.732473 195.329699 
L 236.972431 195.152316 
L 237.135185 195.034786 
L 237.395442 194.851961 
L 237.555093 194.712667 
L 237.802055 194.534195 
L 238.062619 194.335048 
L 238.612495 193.929134 
L 238.748391 193.829016 
L 238.994032 193.63531 
L 239.235972 193.449221 
L 239.436531 193.283808 
L 239.54736 193.196749 
L 240.185439 192.719012 
L 240.480445 192.515511 
L 240.737295 192.331599 
L 240.982718 192.180333 
L 241.265967 191.996421 
L 241.715089 191.71239 
L 241.830326 191.640567 
L 242.085557 191.486037 
L 242.248289 191.381566 
L 242.616342 191.101888 
L 242.741951 191.006123 
L 242.957729 190.853769 
L 246.948759 188.136435 
L 247.237663 187.959052 
L 248.3223 187.225579 
L 248.532312 187.073225 
L 249.126749 186.637929 
L 249.675299 186.198281 
L 250.163574 185.776044 
L 250.27547 185.67919 
L 251.022081 185.000129 
L 251.224514 184.836893 
L 251.922555 184.264479 
L 252.109169 184.112126 
L 253.259908 183.255681 
L 253.703081 182.936827 
L 254.514063 182.326324 
L 254.709226 182.1805 
L 254.86151 182.061882 
L 255.2447 181.787646 
L 255.3596 181.711469 
L 255.91169 181.329497 
L 256.045622 181.250056 
L 256.252839 181.116202 
L 258.522513 179.311901 
L 258.651246 179.199812 
L 258.865286 179.018076 
L 259.352155 178.584957 
L 259.481259 178.476133 
L 259.97865 178.069131 
L 260.224583 177.856925 
L 260.33867 177.763336 
L 261.398064 176.838333 
L 261.567673 176.692508 
L 262.399428 175.988417 
L 262.57327 175.853476 
L 262.757446 175.706563 
L 262.971135 175.534622 
L 263.943974 174.708648 
L 264.149456 174.558471 
L 264.421329 174.339735 
L 264.832498 174.02741 
L 266.099087 173.094789 
L 266.21355 173.000112 
L 266.53065 172.732405 
L 266.777276 172.540875 
L 267.147127 172.236168 
L 267.270107 172.133873 
L 267.742539 171.750813 
L 267.876836 171.639812 
L 268.05487 171.498341 
L 271.397543 168.909419 
L 271.578953 168.762507 
L 271.823103 168.548124 
L 272.160292 168.268446 
L 272.488675 168.007269 
L 272.960486 167.656856 
L 273.128427 167.517561 
L 273.249754 167.423972 
L 273.652461 167.108383 
L 273.790509 166.988677 
L 273.989848 166.822176 
L 274.416826 166.491351 
L 274.686262 166.290027 
L 275.542903 165.610965 
L 275.750588 165.432494 
L 275.977075 165.26164 
L 276.381779 164.931904 
L 276.635399 164.751256 
L 277.012171 164.519461 
L 277.258924 164.362755 
L 277.542205 164.174489 
L 277.783996 164.019959 
L 277.896386 163.942694 
L 278.808353 163.315868 
L 279.138572 163.088426 
L 279.282301 162.985043 
L 281.223891 161.647597 
L 281.648345 161.311331 
L 281.869689 161.129595 
L 282.061784 160.973977 
L 282.439987 160.679064 
L 282.993198 160.231797 
L 283.273084 160.006532 
L 283.433976 159.874855 
L 283.678852 159.672442 
L 283.974674 159.427588 
L 284.616803 158.856263 
L 285.346907 158.258819 
L 285.591327 158.040083 
L 285.722742 157.920377 
L 286.092083 157.589552 
L 288.334756 155.619838 
L 288.488107 155.494691 
L 289.216518 154.851541 
L 289.714625 154.355304 
L 289.907287 154.183362 
L 290.018141 154.081068 
L 290.201219 153.901508 
L 290.351302 153.773096 
L 293.076869 151.314763 
L 293.27844 151.146086 
L 293.602227 150.86532 
L 294.392596 150.186258 
L 294.611725 149.988199 
L 294.901139 149.734639 
L 295.023717 149.623638 
L 295.653859 149.049048 
L 295.811348 148.909753 
L 296.72234 148.082691 
L 296.901942 147.896602 
L 297.099087 147.692013 
L 297.301764 147.484159 
L 297.444574 147.340512 
L 297.640471 147.098923 
L 298.417843 146.367626 
L 298.598816 146.210919 
L 298.784414 146.050948 
L 299.009117 145.859418 
L 299.144386 145.745153 
L 299.385892 145.531858 
L 300.381613 144.651472 
L 300.50902 144.548089 
L 300.710509 144.396824 
L 300.843391 144.284735 
L 301.027833 144.132382 
L 301.17254 144.003969 
L 301.422675 143.795027 
L 302.14765 143.037613 
L 303.53316 141.640313 
L 303.673513 141.491224 
L 303.79922 141.37043 
L 304.192146 140.978664 
L 304.340118 140.845898 
L 304.50373 140.683751 
L 304.661282 140.533574 
L 304.989558 140.232131 
L 305.186988 140.040601 
L 305.30642 139.925248 
L 308.744939 137.002236 
L 308.877311 136.893412 
L 309.223203 136.607205 
L 309.354273 136.486411 
L 309.653021 136.243733 
L 310.112408 135.860673 
L 310.226992 135.774702 
L 310.666128 135.434083 
L 310.858129 135.270847 
L 311.221922 134.982464 
L 312.473908 133.988901 
L 314.213004 132.636219 
L 314.481331 132.429454 
L 314.678318 132.293424 
L 314.851305 132.150865 
L 314.978009 132.043129 
L 315.740529 131.362979 
L 318.003448 129.231118 
L 318.173744 129.062441 
L 318.493969 128.767528 
L 319.153046 128.170084 
L 319.282502 128.054731 
L 321.109516 126.397342 
L 321.331199 126.196018 
L 321.515598 126.024076 
L 321.637945 125.911987 
L 321.772539 125.789016 
L 322.422115 125.215514 
L 322.620131 125.042484 
L 323.226432 124.504894 
L 323.392067 124.350364 
L 325.285641 122.588504 
L 325.647534 122.243532 
L 325.760478 122.137973 
L 326.123088 121.78103 
L 326.269267 121.642824 
L 329.767367 118.36287 
L 329.902912 118.240987 
L 332.333026 116.084096 
L 332.833728 115.602006 
L 332.998211 115.449653 
L 333.138223 115.329946 
L 334.189172 114.366854 
L 334.312558 114.261295 
L 334.488861 114.089353 
L 334.677539 113.899999 
L 335.307188 113.277526 
L 335.635454 112.96629 
L 335.859312 112.773672 
L 336.025267 112.628936 
L 336.172495 112.485288 
L 337.161308 111.639726 
L 337.340185 111.486284 
L 337.56738 111.286048 
L 339.269207 109.763601 
L 339.394974 109.646071 
L 339.582868 109.469776 
L 340.711024 108.393507 
L 340.842857 108.259654 
L 341.295801 107.813476 
L 341.484758 107.623034 
L 341.636234 107.476121 
L 341.750062 107.367298 
L 342.108847 107.027767 
L 342.231767 106.906972 
L 342.386504 106.757883 
L 343.357565 105.833968 
L 344.248806 105.116818 
L 344.406785 104.997112 
L 344.846289 104.647787 
L 344.97003 104.538963 
L 345.216428 104.328933 
L 345.634614 103.955667 
L 345.924506 103.715166 
L 346.135817 103.53343 
L 348.46937 101.284039 
L 348.671546 101.119714 
L 348.786415 101.023949 
L 349.131858 100.733389 
L 349.400084 100.465682 
L 349.613921 100.273064 
L 350.304107 99.62012 
L 350.443982 99.481914 
L 350.708386 99.246854 
L 350.98765 98.991118 
L 351.204349 98.786529 
L 351.422327 98.553646 
L 351.761637 98.231527 
L 352.041904 97.98232 
L 352.179287 97.868055 
L 352.35362 97.716789 
L 352.543243 97.570965 
L 352.803433 97.399023 
L 352.988169 97.271699 
L 353.289003 97.075816 
L 353.428315 96.982228 
L 353.692662 96.777639 
L 353.828453 96.666638 
L 354.277211 96.273784 
L 357.277478 93.776274 
L 357.464089 93.614126 
L 357.581792 93.510744 
L 357.872409 93.273507 
L 358.311194 92.893712 
L 358.573826 92.660829 
L 358.748744 92.506299 
L 358.864088 92.397475 
L 359.210326 92.086238 
L 361.335116 90.320025 
L 361.512786 90.124142 
L 361.762714 89.856435 
L 362.274758 89.428757 
L 362.488684 89.269874 
L 362.669954 89.132756 
L 363.002033 88.874843 
L 363.481981 88.470018 
L 363.946937 88.030369 
L 364.113906 87.88781 
L 364.472102 87.577662 
L 364.674085 87.410073 
L 365.707096 86.461128 
L 365.831656 86.345775 
L 366.001876 86.205392 
L 366.120326 86.102009 
L 366.415429 85.825596 
L 366.583823 85.64386 
L 366.78592 85.458859 
L 366.927758 85.299976 
L 367.381693 84.873386 
L 367.778412 84.393473 
L 368.020466 84.087678 
L 368.163868 83.948383 
L 370.34234 81.691374 
L 370.480708 81.519432 
L 370.68273 81.277843 
L 370.800857 81.128754 
L 371.112443 80.720664 
L 371.724431 79.968691 
L 371.900632 79.813073 
L 372.02107 79.689013 
L 372.252657 79.457218 
L 372.73409 78.979481 
L 373.042916 78.719392 
L 373.272537 78.506097 
L 373.43083 78.361361 
L 373.614848 78.210096 
L 375.292437 76.65609 
L 375.415956 76.532031 
L 375.865832 76.081499 
L 376.047073 75.905205 
L 376.312899 75.650556 
L 376.556432 75.403526 
L 376.679327 75.26532 
L 379.831088 72.310749 
L 380.014067 72.134455 
L 381.758282 70.553243 
L 381.890907 70.425919 
L 382.145613 70.178888 
L 382.398005 69.938387 
L 382.515993 69.840446 
L 382.70375 69.663063 
L 383.162507 69.209267 
L 391.498388 61.224853 
L 392.045488 60.767793 
L 392.218326 60.614351 
L 392.482664 60.378203 
L 392.637351 60.261761 
L 392.843485 60.089819 
L 393.508582 59.534817 
L 393.69039 59.381376 
L 393.865112 59.210522 
L 395.72996 56.935013 
L 395.902462 56.694512 
L 396.108343 56.488835 
L 396.495874 56.128628 
L 396.71056 55.926215 
L 396.870201 55.73795 
L 397.183472 55.344007 
L 397.379047 55.055623 
L 397.517868 54.849946 
L 398.105511 54.032678 
L 398.228292 53.90209 
L 398.487273 53.568 
L 398.487273 53.568 
" clip-path="url(#p10c05da1fc)" style="fill: none; stroke: #1f77b4; stroke-width: 1.5; stroke-linecap: square"/>
   </g>
   <g id="patch_3">
    <path d="M 57.6 307.584 
L 57.6 41.472 
" style="fill: none; stroke: #000000; stroke-width: 0.8; stroke-linejoin: miter; stroke-linecap: square"/>
   </g>
   <g id="patch_4">
    <path d="M 414.72 307.584 
L 414.72 41.472 
" style="fill: none; stroke: #000000; stroke-width: 0.8; stroke-linejoin: miter; stroke-linecap: square"/>
   </g>
   <g id="patch_5">
    <path d="M 57.6 307.584 
L 414.72 307.584 
" style="fill: none; stroke: #000000; stroke-width: 0.8; stroke-linejoin: miter; stroke-linecap: square"/>
   </g>
   <g id="patch_6">
    <path d="M 57.6 41.472 
L 414.72 41.472 
" style="fill: none; stroke: #000000; stroke-width: 0.8; stroke-linejoin: miter; stroke-linecap: square"/>
   </g>
   <g id="text_13">
    <!-- Progress of ABBYY OCR for Deutscher Reichsanzeiger -->
    <g transform="translate(76.375313 35.472) scale(0.12 -0.12)">
     <defs>
      <path id="DejaVuSans-50" d="M 1259 4147 
L 1259 2394 
L 2053 2394 
Q 2494 2394 2734 2622 
Q 2975 2850 2975 3272 
Q 2975 3691 2734 3919 
Q 2494 4147 2053 4147 
L 1259 4147 
z
M 628 4666 
L 2053 4666 
Q 2838 4666 3239 4311 
Q 3641 3956 3641 3272 
Q 3641 2581 3239 2228 
Q 2838 1875 2053 1875 
L 1259 1875 
L 1259 0 
L 628 0 
L 628 4666 
z
" transform="scale(0.015625)"/>
      <path id="DejaVuSans-41" d="M 2188 4044 
L 1331 1722 
L 3047 1722 
L 2188 4044 
z
M 1831 4666 
L 2547 4666 
L 4325 0 
L 3669 0 
L 3244 1197 
L 1141 1197 
L 716 0 
L 50 0 
L 1831 4666 
z
" transform="scale(0.015625)"/>
      <path id="DejaVuSans-42" d="M 1259 2228 
L 1259 519 
L 2272 519 
Q 2781 519 3026 730 
Q 3272 941 3272 1375 
Q 3272 1813 3026 2020 
Q 2781 2228 2272 2228 
L 1259 2228 
z
M 1259 4147 
L 1259 2741 
L 2194 2741 
Q 2656 2741 2882 2914 
Q 3109 3088 3109 3444 
Q 3109 3797 2882 3972 
Q 2656 4147 2194 4147 
L 1259 4147 
z
M 628 4666 
L 2241 4666 
Q 2963 4666 3353 4366 
Q 3744 4066 3744 3513 
Q 3744 3084 3544 2831 
Q 3344 2578 2956 2516 
Q 3422 2416 3680 2098 
Q 3938 1781 3938 1306 
Q 3938 681 3513 340 
Q 3088 0 2303 0 
L 628 0 
L 628 4666 
z
" transform="scale(0.015625)"/>
      <path id="DejaVuSans-59" d="M -13 4666 
L 666 4666 
L 1959 2747 
L 3244 4666 
L 3922 4666 
L 2272 2222 
L 2272 0 
L 1638 0 
L 1638 2222 
L -13 4666 
z
" transform="scale(0.015625)"/>
      <path id="DejaVuSans-4f" d="M 2522 4238 
Q 1834 4238 1429 3725 
Q 1025 3213 1025 2328 
Q 1025 1447 1429 934 
Q 1834 422 2522 422 
Q 3209 422 3611 934 
Q 4013 1447 4013 2328 
Q 4013 3213 3611 3725 
Q 3209 4238 2522 4238 
z
M 2522 4750 
Q 3503 4750 4090 4092 
Q 4678 3434 4678 2328 
Q 4678 1225 4090 567 
Q 3503 -91 2522 -91 
Q 1538 -91 948 565 
Q 359 1222 359 2328 
Q 359 3434 948 4092 
Q 1538 4750 2522 4750 
z
" transform="scale(0.015625)"/>
      <path id="DejaVuSans-43" d="M 4122 4306 
L 4122 3641 
Q 3803 3938 3442 4084 
Q 3081 4231 2675 4231 
Q 1875 4231 1450 3742 
Q 1025 3253 1025 2328 
Q 1025 1406 1450 917 
Q 1875 428 2675 428 
Q 3081 428 3442 575 
Q 3803 722 4122 1019 
L 4122 359 
Q 3791 134 3420 21 
Q 3050 -91 2638 -91 
Q 1578 -91 968 557 
Q 359 1206 359 2328 
Q 359 3453 968 4101 
Q 1578 4750 2638 4750 
Q 3056 4750 3426 4639 
Q 3797 4528 4122 4306 
z
" transform="scale(0.015625)"/>
      <path id="DejaVuSans-52" d="M 2841 2188 
Q 3044 2119 3236 1894 
Q 3428 1669 3622 1275 
L 4263 0 
L 3584 0 
L 2988 1197 
Q 2756 1666 2539 1819 
Q 2322 1972 1947 1972 
L 1259 1972 
L 1259 0 
L 628 0 
L 628 4666 
L 2053 4666 
Q 2853 4666 3247 4331 
Q 3641 3997 3641 3322 
Q 3641 2881 3436 2590 
Q 3231 2300 2841 2188 
z
M 1259 4147 
L 1259 2491 
L 2053 2491 
Q 2509 2491 2742 2702 
Q 2975 2913 2975 3322 
Q 2975 3731 2742 3939 
Q 2509 4147 2053 4147 
L 1259 4147 
z
" transform="scale(0.015625)"/>
      <path id="DejaVuSans-63" d="M 3122 3366 
L 3122 2828 
Q 2878 2963 2633 3030 
Q 2388 3097 2138 3097 
Q 1578 3097 1268 2742 
Q 959 2388 959 1747 
Q 959 1106 1268 751 
Q 1578 397 2138 397 
Q 2388 397 2633 464 
Q 2878 531 3122 666 
L 3122 134 
Q 2881 22 2623 -34 
Q 2366 -91 2075 -91 
Q 1284 -91 818 406 
Q 353 903 353 1747 
Q 353 2603 823 3093 
Q 1294 3584 2113 3584 
Q 2378 3584 2631 3529 
Q 2884 3475 3122 3366 
z
" transform="scale(0.015625)"/>
      <path id="DejaVuSans-68" d="M 3513 2113 
L 3513 0 
L 2938 0 
L 2938 2094 
Q 2938 2591 2744 2837 
Q 2550 3084 2163 3084 
Q 1697 3084 1428 2787 
Q 1159 2491 1159 1978 
L 1159 0 
L 581 0 
L 581 4863 
L 1159 4863 
L 1159 2956 
Q 1366 3272 1645 3428 
Q 1925 3584 2291 3584 
Q 2894 3584 3203 3211 
Q 3513 2838 3513 2113 
z
" transform="scale(0.015625)"/>
      <path id="DejaVuSans-7a" d="M 353 3500 
L 3084 3500 
L 3084 2975 
L 922 459 
L 3084 459 
L 3084 0 
L 275 0 
L 275 525 
L 2438 3041 
L 353 3041 
L 353 3500 
z
" transform="scale(0.015625)"/>
     </defs>
     <use xlink:href="#DejaVuSans-50"/>
     <use xlink:href="#DejaVuSans-72" x="58.552734"/>
     <use xlink:href="#DejaVuSans-6f" x="97.416016"/>
     <use xlink:href="#DejaVuSans-67" x="158.597656"/>
     <use xlink:href="#DejaVuSans-72" x="222.074219"/>
     <use xlink:href="#DejaVuSans-65" x="260.9375"/>
     <use xlink:href="#DejaVuSans-73" x="322.460938"/>
     <use xlink:href="#DejaVuSans-73" x="374.560547"/>
     <use xlink:href="#DejaVuSans-20" x="426.660156"/>
     <use xlink:href="#DejaVuSans-6f" x="458.447266"/>
     <use xlink:href="#DejaVuSans-66" x="519.628906"/>
     <use xlink:href="#DejaVuSans-20" x="554.833984"/>
     <use xlink:href="#DejaVuSans-41" x="586.621094"/>
     <use xlink:href="#DejaVuSans-42" x="655.029297"/>
     <use xlink:href="#DejaVuSans-42" x="723.632812"/>
     <use xlink:href="#DejaVuSans-59" x="786.736328"/>
     <use xlink:href="#DejaVuSans-59" x="847.820312"/>
     <use xlink:href="#DejaVuSans-20" x="908.904297"/>
     <use xlink:href="#DejaVuSans-4f" x="940.691406"/>
     <use xlink:href="#DejaVuSans-43" x="1019.402344"/>
     <use xlink:href="#DejaVuSans-52" x="1089.226562"/>
     <use xlink:href="#DejaVuSans-20" x="1158.708984"/>
     <use xlink:href="#DejaVuSans-66" x="1190.496094"/>
     <use xlink:href="#DejaVuSans-6f" x="1225.701172"/>
     <use xlink:href="#DejaVuSans-72" x="1286.882812"/>
     <use xlink:href="#DejaVuSans-20" x="1327.996094"/>
     <use xlink:href="#DejaVuSans-44" x="1359.783203"/>
     <use xlink:href="#DejaVuSans-65" x="1436.785156"/>
     <use xlink:href="#DejaVuSans-75" x="1498.308594"/>
     <use xlink:href="#DejaVuSans-74" x="1561.6875"/>
     <use xlink:href="#DejaVuSans-73" x="1600.896484"/>
     <use xlink:href="#DejaVuSans-63" x="1652.996094"/>
     <use xlink:href="#DejaVuSans-68" x="1707.976562"/>
     <use xlink:href="#DejaVuSans-65" x="1771.355469"/>
     <use xlink:href="#DejaVuSans-72" x="1832.878906"/>
     <use xlink:href="#DejaVuSans-20" x="1873.992188"/>
     <use xlink:href="#DejaVuSans-52" x="1905.779297"/>
     <use xlink:href="#DejaVuSans-65" x="1970.761719"/>
     <use xlink:href="#DejaVuSans-69" x="2032.285156"/>
     <use xlink:href="#DejaVuSans-63" x="2060.068359"/>
     <use xlink:href="#DejaVuSans-68" x="2115.048828"/>
     <use xlink:href="#DejaVuSans-73" x="2178.427734"/>
     <use xlink:href="#DejaVuSans-61" x="2230.527344"/>
     <use xlink:href="#DejaVuSans-6e" x="2291.806641"/>
     <use xlink:href="#DejaVuSans-7a" x="2355.185547"/>
     <use xlink:href="#DejaVuSans-65" x="2407.675781"/>
     <use xlink:href="#DejaVuSans-69" x="2469.199219"/>
     <use xlink:href="#DejaVuSans-67" x="2496.982422"/>
     <use xlink:href="#DejaVuSans-65" x="2560.458984"/>
     <use xlink:href="#DejaVuSans-72" x="2621.982422"/>
    </g>
   </g>
  </g>
 </g>
 <defs>
  <clipPath id="p10c05da1fc">
   <rect x="57.6" y="41.472" width="357.12" height="266.112"/>
  </clipPath>
 </defs>
</svg>
